<?xml version="1.0" encoding="UTF-8"?>
<svg id="_레이어_2" data-name="레이어 2" xmlns="http://www.w3.org/2000/svg" viewBox="0 0 19.86 19.36">
  <defs>
    <style>
      .cls-1 {
        stroke-dasharray: .5 .5;
      }

      .cls-1, .cls-2, .cls-3, .cls-4 {
        stroke-linecap: round;
        stroke-miterlimit: 10;
      }

      .cls-1, .cls-2, .cls-4 {
        fill: none;
        stroke: #e60012;
        stroke-width: .1px;
      }

      .cls-2 {
        stroke-dasharray: .49 .49;
      }

      .cls-3 {
        fill: #fff;
        stroke: #231815;
        stroke-width: .5px;
      }
    </style>
  </defs>
  <g id="_레이어_1-2" data-name="레이어 1">
    <g>
      <line class="cls-4" x1=".63" y1="9.68" x2=".88" y2="9.68"/>
      <line class="cls-2" x1="1.37" y1="9.68" x2="18.73" y2="9.68"/>
      <line class="cls-4" x1="18.98" y1="9.68" x2="19.23" y2="9.68"/>
    </g>
    <g>
      <line class="cls-4" x1="19.23" y1=".25" x2="19.23" y2=".5"/>
      <line class="cls-1" x1="19.23" y1="1" x2="19.23" y2="18.61"/>
      <line class="cls-4" x1="19.23" y1="18.86" x2="19.23" y2="19.11"/>
    </g>
    <g>
      <line class="cls-4" x1=".63" y1="19.11" x2=".63" y2="18.86"/>
      <line class="cls-1" x1=".63" y1="18.36" x2=".63" y2=".75"/>
      <line class="cls-4" x1=".63" y1=".5" x2=".63" y2=".25"/>
    </g>
    <g>
      <line class="cls-4" x1="9.93" y1="19.11" x2="9.93" y2="18.86"/>
      <line class="cls-1" x1="9.93" y1="18.36" x2="9.93" y2=".75"/>
      <line class="cls-4" x1="9.93" y1=".5" x2="9.93" y2=".25"/>
    </g>
    <g>
      <line class="cls-3" x1="17.71" y1="8.73" x2="19.61" y2="10.63"/>
      <line class="cls-3" x1="19.61" y1="8.73" x2="17.71" y2="10.63"/>
    </g>
    <g>
      <line class="cls-3" x1=".25" y1="8.73" x2="2.15" y2="10.63"/>
      <line class="cls-3" x1="2.15" y1="8.73" x2=".25" y2="10.63"/>
    </g>
    <line class="cls-3" x1="19.23" y1="19.11" x2=".63" y2="19.11"/>
    <line class="cls-3" x1=".63" y1=".25" x2="19.23" y2=".25"/>
  </g>
</svg>